<?xml version="1.0" standalone="no"?><!DOCTYPE svg PUBLIC "-//W3C//DTD SVG 1.1//EN" "http://www.w3.org/Graphics/SVG/1.1/DTD/svg11.dtd"><svg t="1753449746876" class="icon" viewBox="0 0 1024 1024" version="1.1" xmlns="http://www.w3.org/2000/svg" p-id="5044" xmlns:xlink="http://www.w3.org/1999/xlink" width="200" height="200"><path d="M0 0m170.666667 0l682.666666 0q170.666667 0 170.666667 170.666667l0 682.666666q0 170.666667-170.666667 170.666667l-682.666666 0q-170.666667 0-170.666667-170.666667l0-682.666666q0-170.666667 170.666667-170.666667Z" fill="#2B84FF" p-id="5045"></path><path d="M306.133333 256h411.733334c39.530667 0 71.466667 30.997333 71.466666 69.333333V576H234.666667V325.333333c0-38.272 31.936-69.333333 71.466666-69.333333z m122.176 250.517333s17.173333-5.482667 26.112-14.464v-59.669333h-65.557333v24.042667h26.88v22.549333s-7.381333 6.08-22.485333 6.08c0 0-17.621333 0-25.813334-10.901333 0 0-8.213333-10.944-8.213333-32.682667v-8.768s0.106667-20.757333 8.042667-31.936c0 0 7.914667-11.178667 22.464-11.178667 0 0 12.117333 0 18.730666 5.205334 0 0 6.613333 5.184 8.597334 17.344h37.226666s-2.752-24.64-19.328-37.056c0 0-16.576-12.416-46.549333-12.416 0 0-20.48 0-36.074667 8.618666 0 0-15.594667 8.64-23.957333 24.64 0 0-8.384 16.021333-8.384 37.461334l0.106667 12.586666s1.322667 31.104 20.16 48.576c0 0 18.837333 17.450667 50.346666 17.450667 0 0 20.501333 0 37.696-5.482667z m231.018667-47.082666s5.994667 4.266667 5.994667 11.946666c0 0 0 6.805333-5.546667 10.538667 0 0-5.568 3.733333-15.146667 3.733333 0 0-14.997333 0-21.653333-5.525333 0 0-6.677333-5.546667-6.677333-17.216h-38.784s0 14.378667 8 25.386667c0 0 7.978667 11.029333 23.786666 17.365333 0 0 15.808 6.336 35.306667 6.336 0 0 27.669333 0 43.52-10.88 0 0 15.872-10.88 15.872-29.909333 0 0 0-23.850667-26.005333-37.418667 0 0-10.666667-5.589333-27.306667-10.432 0 0-16.64-4.821333-23.253333-9.386667 0 0-6.613333-4.522667-6.613334-10.112 0 0 0-6.4 5.994667-10.517333 0 0 6.016-4.138667 16.362667-4.138667 0 0 10.24 0 16.256 4.885334 0 0 5.994667 4.906667 5.994666 13.76H704s0-13.269333-7.594667-23.594667c0 0-7.616-10.325333-21.333333-15.893333 0 0-13.717333-5.589333-30.997333-5.589334 0 0-17.749333 0-31.957334 5.12 0 0-14.208 5.141333-21.973333 14.378667 0 0-7.786667 9.216-7.786667 21.290667 0 0 0 24.234667 31.189334 38.101333 0 0 9.6 4.288 24.682666 8.896 0 0 15.082667 4.586667 21.098667 8.874667z m-160.981333 50.56h38.549333v-145.237334H498.346667v145.258667z m-192.213334 175.232c-39.530667 0-71.466667-31.061333-71.466666-69.333334v-7.893333h554.666666v7.893333c0 38.272-31.936 69.333333-71.466666 69.333334h-411.733334z m286.506667 48.213333h35.626667c9.877333 0 17.92 7.722667 17.92 17.28 0 9.557333-8.042667 17.28-17.92 17.28H413.653333c-9.941333 0-17.92-7.722667-17.92-17.28 0-9.557333 8.042667-17.28 17.92-17.28h35.626667v-34.773333h143.36v34.773333z" fill="#FFFFFF" p-id="5046"></path></svg>